<?xml version="1.0" encoding="iso-8859-1"?>
<!-- Generator: Adobe Illustrator 30.2.1, SVG Export Plug-In . SVG Version: 9.03 Build 0)  -->
<svg version="1.1" id="Layer_1" xmlns="http://www.w3.org/2000/svg" xmlns:xlink="http://www.w3.org/1999/xlink" x="0px" y="0px"
	 viewBox="0 0 214.925 56.33" style="enable-background:new 0 0 214.925 56.33;" xml:space="preserve">
<g>
	<polygon style="fill:#FFFFFF;" points="6.858,0 6.854,10.579 7.95,10.576 3.638,22.025 0,22.02 0,32.601 35.315,32.601 
		35.315,22.006 31.651,22.001 27.378,10.585 28.45,10.589 28.45,0.003 	"/>
	<g>
		<path style="fill:#BD2036;" d="M17.651,3.953l7.564,19.614c0,0,0.969,2.387,2.543,2.387h-5.507c0,0,0.276,0.04,0.552-0.419
			c0.158-0.263,0.025-0.656,0.025-0.656L21.125,20.5h-3.474h-3.459l-1.706,4.379c0,0-0.13,0.393,0.027,0.656
			c0.275,0.459,0.551,0.419,0.551,0.419H7.557c1.573,0,2.543-2.387,2.543-2.387L17.651,3.953z"/>
	</g>
	<polygon style="fill:#00275B;" points="17.658,3.928 24.478,3.928 24.478,6.656 21.645,6.656 29.095,25.857 31.298,25.857 
		31.298,28.682 22.065,28.682 22.065,25.934 19.473,25.934 19.473,31.323 34.046,31.323 34.046,23.288 30.774,23.293 25.528,9.307 
		27.175,9.307 27.175,1.277 17.658,1.277 8.14,1.277 8.14,9.307 9.789,9.307 4.542,23.275 1.269,23.288 1.269,31.323 15.844,31.323 
		15.844,25.934 13.251,25.934 13.251,28.682 4.018,28.682 4.018,25.857 6.221,25.857 13.671,6.656 10.838,6.656 10.838,3.928 	"/>
	<g>
		<path style="fill:#00275B;" d="M38.259,28.99c0.266,0.26,0.399,0.579,0.399,0.957c0,0.377-0.132,0.695-0.398,0.956
			c-0.266,0.26-0.591,0.39-0.977,0.39c-0.386,0-0.711-0.13-0.977-0.39c-0.265-0.261-0.398-0.579-0.398-0.956
			c0-0.378,0.134-0.697,0.399-0.957c0.267-0.261,0.591-0.391,0.976-0.391C37.667,28.599,37.993,28.729,38.259,28.99 M38.065,29.152
			c-0.212-0.216-0.473-0.325-0.782-0.325c-0.309,0-0.569,0.109-0.782,0.325c-0.213,0.217-0.318,0.482-0.318,0.795
			c0,0.314,0.105,0.579,0.318,0.795c0.213,0.216,0.473,0.323,0.782,0.323c0.308,0,0.568-0.107,0.782-0.323
			c0.212-0.216,0.319-0.481,0.319-0.795C38.384,29.634,38.278,29.369,38.065,29.152 M36.687,29.168h0.123h0.501
			c0.168,0,0.3,0.037,0.396,0.111c0.095,0.075,0.143,0.179,0.143,0.311c0,0.143-0.048,0.257-0.144,0.339
			c-0.072,0.061-0.163,0.099-0.276,0.115l0.448,0.681h-0.141h-0.143l-0.403-0.673l-0.26,0.002v0.671h-0.122h-0.122V29.168z
			 M36.931,29.846h0.332c0.115,0,0.199-0.02,0.252-0.061c0.054-0.042,0.08-0.106,0.08-0.194c0-0.077-0.026-0.134-0.08-0.17
			c-0.053-0.037-0.137-0.055-0.252-0.055h-0.332V29.846z"/>
	</g>
	<polygon style="fill:#FFFFFF;" points="17.645,18.421 20.31,18.421 17.698,11.541 14.993,18.421 	"/>
	<rect x="43.2" y="0" style="fill:#00275B;" width="0.632" height="56.33"/>
	<g>
		<path style="fill:#00275B;" d="M104.139,42.028h-1.092c0.205,0.156,0.346,0.284,0.421,0.384c0.076,0.1,0.125,0.224,0.147,0.37
			c0.022,0.147,0.033,0.415,0.033,0.806v7.302c0,0.381-0.011,0.646-0.033,0.795c-0.022,0.149-0.071,0.274-0.147,0.377
			c-0.075,0.102-0.216,0.232-0.421,0.388h2.637c-0.215-0.166-0.359-0.298-0.432-0.395c-0.073-0.098-0.122-0.23-0.147-0.396
			c-0.024-0.166-0.036-0.422-0.036-0.769v-2.893c0-0.42,0.016-0.703,0.047-0.85c0.032-0.146,0.111-0.297,0.238-0.454
			c0.176-0.205,0.395-0.361,0.656-0.468c0.261-0.108,0.548-0.162,0.86-0.162c0.684,0,1.194,0.225,1.531,0.674
			c0.117,0.147,0.197,0.314,0.238,0.502c0.042,0.188,0.063,0.47,0.063,0.846v2.805c0,0.347-0.013,0.604-0.037,0.773
			c-0.025,0.168-0.075,0.304-0.15,0.406c-0.076,0.103-0.219,0.23-0.429,0.381h2.637c-0.278-0.224-0.448-0.416-0.509-0.575
			c-0.061-0.158-0.092-0.487-0.092-0.985v-3.288c0-0.425-0.028-0.752-0.084-0.982c-0.056-0.229-0.157-0.447-0.304-0.652
			c-0.161-0.22-0.358-0.406-0.589-0.56c-0.232-0.154-0.494-0.271-0.784-0.352c-0.291-0.08-0.597-0.121-0.919-0.121
			c-0.493,0-0.954,0.091-1.381,0.271c-0.427,0.181-0.758,0.425-0.992,0.733v-4.212C104.883,41.928,104.573,42.028,104.139,42.028
			 M101.594,46.195c0.268,0,0.471,0.021,0.608,0.063c0.137,0.041,0.264,0.116,0.381,0.223v-1.428
			c-0.152,0.063-0.462,0.095-0.93,0.095h-1.231v-2.359h-0.615v0.198c0,0.889-0.195,1.538-0.586,1.948
			c-0.327,0.367-0.762,0.596-1.304,0.689v0.571h1.084v3.494c0,0.508,0.015,0.889,0.044,1.142c0.029,0.254,0.083,0.463,0.161,0.627
			c0.078,0.163,0.2,0.333,0.367,0.509c0.444,0.464,0.983,0.696,1.618,0.696c0.2,0,0.391-0.032,0.571-0.096l0.821-1.12
			c-0.235,0.088-0.454,0.132-0.659,0.132c-0.518,0-0.923-0.181-1.216-0.542c-0.113-0.142-0.188-0.313-0.227-0.513
			s-0.059-0.523-0.059-0.967v-3.362H101.594z M96.85,51.883c-0.061-0.159-0.092-0.49-0.092-0.993v-9.163
			c-0.185,0.201-0.495,0.301-0.93,0.301h-1.091c0.205,0.156,0.345,0.284,0.421,0.384c0.076,0.1,0.125,0.224,0.147,0.37
			c0.022,0.147,0.033,0.415,0.033,0.806v7.302c0,0.381-0.011,0.646-0.033,0.795c-0.022,0.149-0.071,0.274-0.147,0.377
			c-0.076,0.102-0.216,0.232-0.421,0.388h2.622C97.081,52.23,96.911,52.041,96.85,51.883 M91.591,51.637
			c0.08,0.22,0.24,0.405,0.479,0.557c0.191,0.117,0.391,0.199,0.601,0.245c0.21,0.047,0.505,0.084,0.886,0.114l0.689-1.033
			c-0.435-0.015-0.75-0.1-0.945-0.256c-0.181-0.132-0.293-0.275-0.337-0.429c-0.044-0.154-0.066-0.455-0.066-0.904v-2.044
			c0-0.581-0.018-0.985-0.055-1.212c-0.036-0.227-0.123-0.453-0.26-0.678c-0.444-0.707-1.335-1.062-2.673-1.062
			c-0.381,0-0.747,0.035-1.099,0.103l-1.047,1.589c0.517-0.249,0.925-0.416,1.223-0.501c0.298-0.086,0.61-0.129,0.937-0.129
			c0.293,0,0.556,0.042,0.788,0.125c0.232,0.083,0.411,0.201,0.538,0.355c0.127,0.154,0.191,0.331,0.191,0.531
			c0,0.283-0.119,0.498-0.356,0.645c-0.237,0.146-0.714,0.29-1.432,0.432c-0.991,0.19-1.684,0.395-2.08,0.615
			c-0.268,0.142-0.483,0.36-0.644,0.656c-0.161,0.295-0.242,0.606-0.242,0.933c0,0.689,0.269,1.275,0.806,1.758
			c0.459,0.41,1.084,0.616,1.875,0.616c0.307,0,0.598-0.032,0.871-0.096l0.931-1.179c-0.45,0.137-0.845,0.205-1.187,0.205
			c-0.527,0-0.939-0.114-1.234-0.344c-0.296-0.229-0.443-0.544-0.443-0.945c0-0.625,0.381-1.03,1.142-1.216
			c0.572-0.132,0.939-0.219,1.103-0.263c0.163-0.044,0.312-0.089,0.446-0.136c0.135-0.046,0.292-0.113,0.473-0.201v2.043
			C91.47,51.049,91.51,51.417,91.591,51.637 M80.727,46.342c0.366-0.308,0.818-0.462,1.355-0.462c1.118,0,1.789,0.591,2.014,1.773
			h-4.094C80.119,47.086,80.361,46.649,80.727,46.342 M85.759,48.385c0-0.498-0.091-0.958-0.271-1.38
			c-0.181-0.423-0.432-0.788-0.755-1.095c-0.322-0.308-0.703-0.547-1.142-0.718c-0.44-0.171-0.918-0.257-1.436-0.257
			c-0.527,0-1.014,0.077-1.461,0.231s-0.839,0.382-1.176,0.685c-0.258,0.234-0.485,0.512-0.681,0.831
			c-0.195,0.32-0.345,0.659-0.45,1.018c-0.105,0.359-0.158,0.722-0.158,1.088c0,0.747,0.19,1.416,0.568,2.007
			c0.378,0.591,0.911,1.05,1.597,1.377c0.686,0.327,1.458,0.491,2.318,0.491c0.254,0,0.506-0.013,0.758-0.037
			c0.251-0.025,0.491-0.065,0.718-0.121c0.227-0.056,0.465-0.131,0.714-0.223l0.857-1.509c-0.288,0.195-0.567,0.353-0.835,0.472
			c-0.269,0.12-0.556,0.208-0.861,0.264s-0.624,0.084-0.956,0.084c-0.62,0-1.167-0.117-1.64-0.351
			c-0.474-0.235-0.84-0.574-1.099-1.018c-0.259-0.445-0.403-0.972-0.432-1.582h5.823V48.385z M74.909,50.429
			c0,0.449-0.02,0.801-0.059,1.054c-0.039,0.254-0.108,0.452-0.205,0.594c-0.098,0.141-0.244,0.266-0.44,0.373h2.996
			c-0.195-0.107-0.342-0.231-0.439-0.37c-0.098-0.139-0.167-0.334-0.206-0.586c-0.039-0.251-0.058-0.606-0.058-1.065v-6.38
			c0-0.654,0.047-1.115,0.143-1.384c0.095-0.268,0.282-0.481,0.56-0.637h-2.996c0.196,0.107,0.342,0.23,0.44,0.37
			c0.097,0.139,0.166,0.335,0.205,0.589c0.039,0.254,0.059,0.608,0.059,1.062v2.161H69.21v-2.161c0-0.454,0.019-0.808,0.055-1.062
			c0.037-0.254,0.104-0.451,0.202-0.593c0.097-0.142,0.246-0.264,0.446-0.366H66.91c0.196,0.102,0.345,0.226,0.447,0.37
			c0.103,0.144,0.172,0.341,0.209,0.593c0.037,0.251,0.055,0.604,0.055,1.058v6.38c0,0.454-0.018,0.807-0.055,1.058
			c-0.037,0.252-0.106,0.449-0.209,0.593c-0.102,0.144-0.251,0.268-0.447,0.37h3.003c-0.2-0.102-0.349-0.224-0.446-0.366
			c-0.098-0.142-0.165-0.339-0.202-0.593c-0.036-0.254-0.055-0.608-0.055-1.062v-3.003h5.699V50.429z M58.376,50.246
			c-0.649,0.878-1.445,1.318-2.387,1.318c-0.635,0-1.156-0.191-1.564-0.571c-0.408-0.381-0.612-0.869-0.612-1.465
			c0-0.86,0.481-1.641,1.443-2.344C56.047,48.078,57.087,49.098,58.376,50.246 M54.648,44.441c-0.166-0.242-0.249-0.487-0.249-0.736
			c0-0.268,0.098-0.488,0.293-0.659c0.195-0.171,0.442-0.257,0.74-0.257c0.322,0,0.588,0.093,0.798,0.279
			c0.21,0.185,0.315,0.422,0.315,0.71c0,0.542-0.339,1.072-1.018,1.59C55.107,44.992,54.814,44.683,54.648,44.441 M57.534,45.06
			c0.19-0.317,0.286-0.688,0.286-1.113c0-0.616-0.215-1.125-0.645-1.527c-0.43-0.403-0.974-0.605-1.633-0.605
			c-0.454,0-0.873,0.094-1.256,0.282c-0.384,0.188-0.688,0.447-0.912,0.777c-0.225,0.329-0.337,0.687-0.337,1.073
			c0,0.239,0.039,0.468,0.117,0.688c0.078,0.22,0.206,0.449,0.385,0.689c0.178,0.239,0.435,0.534,0.772,0.886
			c-0.532,0.425-0.959,0.819-1.281,1.183c-0.323,0.364-0.552,0.719-0.689,1.065c-0.137,0.347-0.205,0.733-0.205,1.158
			c0,0.595,0.15,1.126,0.45,1.593c0.301,0.466,0.722,0.825,1.264,1.076c0.542,0.252,1.16,0.378,1.853,0.378
			c0.513,0,0.964-0.063,1.355-0.187c0.391-0.125,0.738-0.318,1.044-0.579c0.305-0.261,0.611-0.621,0.919-1.08
			c0.464,0.43,0.876,0.766,1.238,1.011c0.361,0.244,0.705,0.416,1.032,0.516c0.327,0.1,0.686,0.15,1.077,0.15
			c0.41,0,0.998-0.015,1.765-0.044c-0.649-0.327-1.206-0.636-1.67-0.926c-0.464-0.291-0.991-0.672-1.582-1.143
			c-0.591-0.471-1.256-1.047-1.996-1.728c-0.739-0.682-1.559-1.466-2.457-2.355C56.975,45.79,57.344,45.377,57.534,45.06"/>
		<path style="fill:#00275B;" d="M191.498,30.842c0.366-0.308,0.817-0.462,1.354-0.462c1.119,0,1.79,0.591,2.015,1.773h-4.095
			C190.89,31.587,191.131,31.149,191.498,30.842 M196.529,32.885c0-0.498-0.09-0.958-0.271-1.38
			c-0.18-0.423-0.432-0.788-0.754-1.095c-0.322-0.308-0.703-0.547-1.143-0.718c-0.439-0.171-0.918-0.256-1.435-0.256
			c-0.528,0-1.015,0.076-1.461,0.23c-0.447,0.154-0.839,0.382-1.176,0.685c-0.259,0.234-0.486,0.512-0.681,0.831
			c-0.195,0.32-0.346,0.66-0.451,1.018c-0.105,0.359-0.157,0.722-0.157,1.088c0,0.747,0.189,1.416,0.568,2.007
			c0.378,0.591,0.91,1.05,1.596,1.377c0.686,0.327,1.459,0.491,2.318,0.491c0.254,0,0.507-0.013,0.758-0.037
			c0.252-0.024,0.491-0.065,0.718-0.121s0.465-0.13,0.714-0.223l0.857-1.509c-0.288,0.195-0.566,0.353-0.835,0.472
			c-0.268,0.12-0.555,0.208-0.86,0.264c-0.306,0.056-0.624,0.084-0.956,0.084c-0.62,0-1.167-0.117-1.641-0.351
			c-0.473-0.235-0.84-0.574-1.098-1.018c-0.259-0.445-0.403-0.972-0.433-1.582h5.823V32.885z M187.558,30.695
			c0.268,0,0.471,0.021,0.608,0.063c0.136,0.041,0.264,0.116,0.381,0.223v-1.428c-0.152,0.063-0.462,0.095-0.93,0.095h-1.231V27.29
			h-0.615v0.197c0,0.889-0.196,1.538-0.586,1.949c-0.327,0.366-0.762,0.595-1.304,0.688v0.571h1.084v3.494
			c0,0.508,0.015,0.889,0.044,1.143c0.029,0.254,0.083,0.462,0.161,0.626c0.078,0.163,0.2,0.333,0.366,0.509
			c0.445,0.464,0.984,0.696,1.619,0.696c0.2,0,0.391-0.032,0.571-0.096l0.821-1.12c-0.235,0.088-0.454,0.132-0.659,0.132
			c-0.518,0-0.923-0.181-1.216-0.542c-0.113-0.142-0.188-0.313-0.227-0.513s-0.059-0.522-0.059-0.967v-3.362H187.558z
			 M181.22,36.137c0.08,0.22,0.24,0.406,0.48,0.557c0.19,0.117,0.39,0.199,0.6,0.245c0.21,0.047,0.506,0.084,0.886,0.114
			l0.689-1.033c-0.435-0.015-0.75-0.1-0.945-0.256c-0.181-0.132-0.293-0.275-0.337-0.429c-0.044-0.154-0.066-0.455-0.066-0.904
			v-2.044c0-0.581-0.018-0.985-0.055-1.212c-0.036-0.227-0.123-0.453-0.26-0.677c-0.444-0.708-1.335-1.062-2.673-1.062
			c-0.381,0-0.747,0.034-1.099,0.102l-1.047,1.589c0.518-0.249,0.925-0.416,1.223-0.501c0.298-0.086,0.61-0.128,0.938-0.128
			c0.293,0,0.555,0.041,0.787,0.124c0.232,0.083,0.411,0.202,0.538,0.355c0.127,0.154,0.191,0.331,0.191,0.531
			c0,0.284-0.119,0.498-0.355,0.645c-0.237,0.146-0.715,0.29-1.432,0.432c-0.992,0.19-1.685,0.396-2.08,0.615
			c-0.269,0.142-0.484,0.36-0.645,0.656c-0.161,0.295-0.242,0.607-0.242,0.934c0,0.688,0.269,1.274,0.806,1.757
			c0.459,0.411,1.084,0.616,1.875,0.616c0.308,0,0.598-0.032,0.872-0.096l0.93-1.179c-0.45,0.137-0.845,0.205-1.187,0.205
			c-0.527,0-0.939-0.114-1.234-0.344c-0.295-0.229-0.443-0.544-0.443-0.945c0-0.625,0.381-1.03,1.143-1.216
			c0.571-0.131,0.938-0.219,1.102-0.263c0.163-0.044,0.312-0.089,0.447-0.136c0.134-0.046,0.291-0.113,0.472-0.201v2.043
			C181.099,35.549,181.139,35.918,181.22,36.137 M164.144,29.648h-1.099c0.205,0.156,0.346,0.286,0.421,0.388
			c0.076,0.103,0.125,0.227,0.147,0.374c0.022,0.146,0.033,0.412,0.033,0.798v4.182c0,0.381-0.011,0.646-0.033,0.795
			c-0.022,0.149-0.071,0.275-0.147,0.377c-0.075,0.103-0.216,0.232-0.421,0.388h2.622c-0.195-0.146-0.332-0.272-0.41-0.377
			s-0.129-0.239-0.154-0.403c-0.024-0.163-0.036-0.423-0.036-0.78v-2.805c0-0.322,0.019-0.568,0.058-0.736
			c0.039-0.169,0.11-0.328,0.213-0.48c0.151-0.224,0.359-0.398,0.622-0.52c0.264-0.122,0.552-0.183,0.864-0.183
			c0.245,0,0.488,0.047,0.729,0.139c0.242,0.093,0.438,0.222,0.59,0.388c0.322,0.337,0.483,0.877,0.483,1.619v2.578
			c0,0.347-0.012,0.604-0.036,0.773c-0.025,0.168-0.074,0.303-0.147,0.403s-0.212,0.228-0.417,0.384h2.636
			c-0.283-0.224-0.456-0.415-0.52-0.571c-0.063-0.156-0.095-0.486-0.095-0.989v-2.702c0-0.367,0.01-0.622,0.029-0.766
			c0.02-0.144,0.066-0.287,0.14-0.428c0.146-0.274,0.363-0.49,0.651-0.648c0.288-0.159,0.601-0.239,0.938-0.239
			c0.605,0,1.077,0.206,1.414,0.616c0.141,0.19,0.244,0.415,0.307,0.674c0.064,0.258,0.095,0.607,0.095,1.047v2.446
			c0,0.347-0.012,0.604-0.036,0.773c-0.025,0.168-0.075,0.304-0.15,0.406c-0.076,0.103-0.219,0.23-0.429,0.381h2.747
			c-0.201-0.083-0.351-0.178-0.451-0.285c-0.1-0.108-0.168-0.259-0.205-0.455c-0.036-0.195-0.055-0.468-0.055-0.82v-2.834
			c0-0.508-0.028-0.907-0.084-1.198c-0.056-0.29-0.153-0.545-0.289-0.765c-0.21-0.357-0.536-0.639-0.978-0.846
			c-0.442-0.208-0.936-0.311-1.483-0.311c-0.342,0-0.656,0.046-0.941,0.139c-0.286,0.093-0.549,0.237-0.788,0.432
			s-0.493,0.469-0.761,0.82c-0.298-0.483-0.638-0.836-1.019-1.058c-0.38-0.222-0.844-0.333-1.391-0.333
			c-0.503,0-0.933,0.095-1.289,0.285c-0.357,0.191-0.699,0.511-1.026,0.96v-1.333C164.822,29.548,164.539,29.648,164.144,29.648
			 M160.038,27.004c-0.196,0.19-0.293,0.42-0.293,0.688c0,0.279,0.094,0.514,0.282,0.707c0.187,0.193,0.418,0.29,0.692,0.29
			c0.283,0,0.518-0.097,0.706-0.29c0.188-0.193,0.282-0.428,0.282-0.707c0-0.263-0.092-0.491-0.278-0.684
			c-0.185-0.193-0.413-0.29-0.681-0.29C160.47,26.718,160.233,26.814,160.038,27.004 M160.543,29.648h-1.099
			c0.205,0.156,0.346,0.286,0.421,0.388c0.076,0.103,0.125,0.227,0.147,0.374c0.022,0.146,0.033,0.412,0.033,0.798v4.182
			c0,0.381-0.011,0.646-0.033,0.795c-0.022,0.149-0.071,0.275-0.147,0.377c-0.075,0.103-0.216,0.232-0.421,0.388h2.622
			c-0.2-0.161-0.338-0.291-0.413-0.392c-0.076-0.1-0.126-0.23-0.151-0.391c-0.024-0.162-0.036-0.42-0.036-0.777v-6.042
			C161.28,29.548,160.973,29.648,160.543,29.648 M157.956,36.383c-0.061-0.159-0.091-0.49-0.091-0.993v-9.162
			c-0.186,0.2-0.496,0.3-0.93,0.3h-1.092c0.205,0.156,0.346,0.284,0.422,0.384c0.075,0.101,0.124,0.224,0.146,0.37
			c0.022,0.147,0.033,0.415,0.033,0.806v7.302c0,0.381-0.011,0.646-0.033,0.795c-0.022,0.149-0.071,0.275-0.146,0.377
			c-0.076,0.103-0.217,0.232-0.422,0.388h2.622C158.187,36.731,158.017,36.541,157.956,36.383 M151.745,26.272
			c-1.06,0-2.018,0.236-2.875,0.71c-0.857,0.474-1.527,1.129-2.011,1.967c-0.483,0.837-0.725,1.773-0.725,2.808
			c0,0.801,0.141,1.537,0.422,2.209c0.28,0.671,0.688,1.25,1.223,1.735c0.534,0.486,1.174,0.859,1.919,1.117
			c0.744,0.259,1.556,0.389,2.435,0.389c0.312,0,0.602-0.016,0.868-0.048c0.266-0.032,0.526-0.081,0.78-0.147
			c0.254-0.065,0.525-0.157,0.813-0.274l0.798-1.846c-0.708,0.376-1.326,0.644-1.853,0.802c-0.527,0.159-1.067,0.238-1.619,0.238
			c-0.732,0-1.403-0.196-2.014-0.589c-0.61-0.393-1.091-0.929-1.443-1.608c-0.351-0.679-0.527-1.426-0.527-2.241
			c0-0.752,0.16-1.422,0.48-2.011c0.32-0.588,0.768-1.046,1.344-1.373s1.228-0.491,1.955-0.491c0.484,0,0.953,0.07,1.407,0.209
			s0.944,0.36,1.472,0.663v-1.817C153.49,26.406,152.541,26.272,151.745,26.272 M139.517,36.558c-0.076-0.1-0.126-0.23-0.151-0.391
			c-0.024-0.162-0.036-0.42-0.036-0.777v-2.607c0-0.65,0.112-1.131,0.337-1.443c0.136-0.2,0.327-0.358,0.571-0.473
			c0.244-0.114,0.508-0.172,0.791-0.172c0.322,0,0.571,0.086,0.747,0.257v-1.458c-0.22-0.039-0.403-0.058-0.549-0.058
			c-0.41,0-0.777,0.103-1.099,0.311c-0.322,0.207-0.588,0.509-0.798,0.904v-1.303c-0.186,0.2-0.493,0.3-0.923,0.3h-1.099
			c0.205,0.156,0.346,0.286,0.422,0.388c0.075,0.103,0.124,0.227,0.146,0.374c0.022,0.146,0.033,0.412,0.033,0.798v4.182
			c0,0.381-0.011,0.646-0.033,0.795c-0.022,0.149-0.071,0.275-0.146,0.377c-0.076,0.103-0.217,0.232-0.422,0.388h2.622
			C139.73,36.789,139.592,36.659,139.517,36.558 M133.581,30.871c0.393,0.249,0.698,0.598,0.915,1.048
			c0.218,0.449,0.326,0.966,0.326,1.552c0,0.518-0.104,0.974-0.311,1.37c-0.208,0.395-0.499,0.703-0.875,0.923
			c-0.376,0.219-0.801,0.329-1.275,0.329c-0.356,0-0.689-0.072-0.999-0.216c-0.311-0.144-0.585-0.352-0.824-0.626
			c-0.24-0.273-0.423-0.593-0.55-0.959c-0.127-0.367-0.19-0.75-0.19-1.15c0-0.508,0.101-0.965,0.304-1.37
			c0.202-0.405,0.487-0.719,0.853-0.941c0.366-0.222,0.786-0.333,1.26-0.333C132.732,30.498,133.188,30.622,133.581,30.871
			 M131.402,29.531c-0.322,0.063-0.628,0.16-0.916,0.289c-0.288,0.13-0.561,0.292-0.82,0.487c-0.464,0.362-0.828,0.81-1.091,1.344
			c-0.264,0.535-0.396,1.095-0.396,1.681c0,0.713,0.175,1.362,0.524,1.948s0.835,1.047,1.457,1.381
			c0.623,0.334,1.313,0.502,2.069,0.502c0.777,0,1.488-0.174,2.135-0.52c0.647-0.347,1.155-0.819,1.524-1.418
			c0.369-0.598,0.553-1.258,0.553-1.981c0-0.527-0.105-1.034-0.315-1.52c-0.21-0.485-0.515-0.909-0.916-1.27
			c-0.737-0.679-1.65-1.018-2.739-1.018C132.08,29.436,131.724,29.467,131.402,29.531 M126.926,30.695
			c0.274,0,0.46,0.016,0.561,0.048c0.1,0.032,0.194,0.101,0.282,0.209v-1.399c-0.176,0.063-0.362,0.095-0.557,0.095h-1.604v-1.011
			c0-0.473,0.049-0.783,0.146-0.93c0.186-0.308,0.511-0.461,0.975-0.461c0.283,0,0.554,0.085,0.813,0.256l1.127-1.23
			c-0.439-0.074-0.8-0.11-1.084-0.11c-0.571,0-1.063,0.061-1.475,0.183c-0.413,0.122-0.766,0.312-1.059,0.571
			c-0.312,0.269-0.536,0.554-0.67,0.857c-0.134,0.303-0.201,0.671-0.201,1.106v0.769l-0.791,1.047h0.791v4.695
			c0,0.342-0.013,0.597-0.037,0.766c-0.024,0.168-0.074,0.305-0.15,0.41c-0.076,0.105-0.214,0.233-0.414,0.384h2.703
			c-0.113-0.068-0.191-0.127-0.235-0.176c-0.044-0.048-0.117-0.156-0.219-0.322c-0.059-0.112-0.104-0.233-0.136-0.362
			c-0.032-0.13-0.054-0.309-0.066-0.539c-0.012-0.229-0.018-0.464-0.018-0.703v-4.153H126.926z M113.625,30.842
			c0.366-0.308,0.818-0.462,1.355-0.462c1.118,0,1.79,0.591,2.014,1.773H112.9C113.017,31.587,113.259,31.149,113.625,30.842
			 M118.657,32.885c0-0.498-0.09-0.958-0.271-1.38c-0.181-0.423-0.432-0.788-0.754-1.095c-0.323-0.308-0.704-0.547-1.143-0.718
			c-0.439-0.171-0.918-0.256-1.436-0.256c-0.527,0-1.014,0.076-1.461,0.23s-0.838,0.382-1.175,0.685
			c-0.259,0.234-0.486,0.512-0.681,0.831c-0.196,0.32-0.346,0.66-0.451,1.018c-0.105,0.359-0.157,0.722-0.157,1.088
			c0,0.747,0.189,1.416,0.567,2.007c0.379,0.591,0.911,1.05,1.597,1.377c0.686,0.327,1.459,0.491,2.318,0.491
			c0.254,0,0.507-0.013,0.758-0.037c0.252-0.024,0.491-0.065,0.718-0.121c0.227-0.056,0.465-0.13,0.714-0.223l0.857-1.509
			c-0.288,0.195-0.567,0.353-0.835,0.472c-0.269,0.12-0.555,0.208-0.861,0.264c-0.305,0.056-0.623,0.084-0.955,0.084
			c-0.621,0-1.167-0.117-1.641-0.351c-0.474-0.235-0.84-0.574-1.099-1.018c-0.259-0.445-0.402-0.972-0.432-1.582h5.823V32.885z
			 M107.97,29.436c-0.684,0-1.285,0.09-1.805,0.271c-0.521,0.18-0.993,0.466-1.418,0.857c-0.859,0.791-1.289,1.75-1.289,2.878
			c0,0.527,0.108,1.022,0.322,1.483c0.215,0.462,0.518,0.86,0.909,1.194c0.39,0.334,0.846,0.592,1.366,0.773
			c0.52,0.18,1.095,0.271,1.725,0.271c0.859,0,1.533-0.096,2.021-0.286l0.93-1.545c-0.264,0.171-0.531,0.313-0.802,0.428
			s-0.541,0.199-0.809,0.253c-0.269,0.054-0.537,0.08-0.806,0.08c-0.61,0-1.161-0.128-1.651-0.384
			c-0.491-0.257-0.878-0.614-1.161-1.073c-0.284-0.459-0.425-0.967-0.425-1.524c0-0.517,0.108-0.975,0.326-1.373
			c0.217-0.398,0.53-0.704,0.937-0.919c0.408-0.215,0.868-0.322,1.381-0.322c0.791,0,1.45,0.256,1.977,0.769v-1.634
			C109.132,29.502,108.556,29.436,107.97,29.436 M95.989,29.648h-1.018c0.205,0.156,0.345,0.286,0.421,0.388
			c0.076,0.103,0.125,0.227,0.147,0.374c0.022,0.146,0.032,0.412,0.032,0.798v4.182c0,0.381-0.01,0.646-0.032,0.795
			c-0.022,0.149-0.071,0.275-0.147,0.377c-0.076,0.103-0.216,0.232-0.421,0.388h2.622c-0.2-0.161-0.338-0.291-0.414-0.392
			c-0.076-0.1-0.126-0.23-0.15-0.391c-0.024-0.162-0.037-0.42-0.037-0.777v-3.193c0-0.4,0.071-0.701,0.213-0.901
			c0.156-0.215,0.366-0.383,0.63-0.505c0.263-0.122,0.554-0.184,0.871-0.184c0.327,0,0.636,0.063,0.927,0.187
			c0.29,0.125,0.511,0.287,0.663,0.487c0.122,0.147,0.21,0.343,0.263,0.59c0.054,0.247,0.081,0.58,0.081,1v2.519
			c0,0.342-0.012,0.596-0.037,0.762c-0.024,0.166-0.076,0.301-0.154,0.406c-0.078,0.105-0.219,0.236-0.424,0.392h2.644
			c-0.279-0.219-0.448-0.409-0.509-0.567c-0.061-0.159-0.092-0.49-0.092-0.993v-2.688c0-0.6-0.027-1.051-0.08-1.351
			c-0.054-0.3-0.152-0.563-0.293-0.787c-0.152-0.22-0.352-0.417-0.601-0.59c-0.249-0.173-0.536-0.306-0.861-0.399
			c-0.324-0.093-0.648-0.139-0.97-0.139c-0.469,0-0.879,0.091-1.231,0.274c-0.351,0.183-0.722,0.502-1.113,0.956v-1.318
			C96.734,29.548,96.424,29.648,95.989,29.648 M88.994,30.842c0.366-0.308,0.818-0.462,1.355-0.462c1.118,0,1.789,0.591,2.014,1.773
			h-4.094C88.386,31.587,88.627,31.149,88.994,30.842 M94.025,32.885c0-0.498-0.09-0.958-0.271-1.38
			c-0.18-0.423-0.432-0.788-0.754-1.095c-0.322-0.308-0.703-0.547-1.143-0.718c-0.439-0.171-0.918-0.256-1.435-0.256
			c-0.527,0-1.014,0.076-1.461,0.23s-0.839,0.382-1.176,0.685c-0.259,0.234-0.486,0.512-0.681,0.831
			c-0.195,0.32-0.345,0.66-0.45,1.018c-0.105,0.359-0.158,0.722-0.158,1.088c0,0.747,0.189,1.416,0.568,2.007
			c0.378,0.591,0.91,1.05,1.596,1.377c0.686,0.327,1.459,0.491,2.319,0.491c0.253,0,0.506-0.013,0.758-0.037
			c0.251-0.024,0.49-0.065,0.717-0.121c0.227-0.056,0.465-0.13,0.715-0.223l0.856-1.509c-0.288,0.195-0.566,0.353-0.835,0.472
			c-0.268,0.12-0.555,0.208-0.86,0.264s-0.624,0.084-0.956,0.084c-0.62,0-1.167-0.117-1.641-0.351
			c-0.473-0.235-0.839-0.574-1.098-1.018c-0.259-0.445-0.403-0.972-0.432-1.582h5.822V32.885z M83.629,27.004
			c-0.196,0.19-0.293,0.42-0.293,0.688c0,0.279,0.094,0.514,0.282,0.707c0.188,0.193,0.418,0.29,0.692,0.29
			c0.283,0,0.519-0.097,0.707-0.29c0.188-0.193,0.282-0.428,0.282-0.707c0-0.263-0.093-0.491-0.279-0.684
			c-0.185-0.193-0.412-0.29-0.681-0.29C84.061,26.718,83.824,26.814,83.629,27.004 M84.134,29.648h-1.098
			c0.205,0.156,0.345,0.286,0.421,0.388c0.075,0.103,0.124,0.227,0.146,0.374c0.022,0.146,0.033,0.412,0.033,0.798v4.182
			c0,0.381-0.011,0.646-0.033,0.795c-0.022,0.149-0.071,0.275-0.146,0.377c-0.076,0.103-0.216,0.232-0.421,0.388h2.622
			c-0.201-0.161-0.339-0.291-0.414-0.392c-0.076-0.1-0.126-0.23-0.15-0.391c-0.025-0.162-0.037-0.42-0.037-0.777v-6.042
			C84.871,29.548,84.564,29.648,84.134,29.648 M81.548,36.383c-0.061-0.159-0.092-0.49-0.092-0.993v-9.162
			c-0.185,0.2-0.495,0.3-0.93,0.3h-1.091c0.205,0.156,0.345,0.284,0.421,0.384c0.075,0.101,0.124,0.224,0.146,0.37
			c0.022,0.147,0.033,0.415,0.033,0.806v7.302c0,0.381-0.011,0.646-0.033,0.795c-0.022,0.149-0.071,0.275-0.146,0.377
			c-0.076,0.103-0.216,0.232-0.421,0.388h2.622C81.778,36.731,81.609,36.541,81.548,36.383 M76.462,27.004
			c-0.196,0.19-0.293,0.42-0.293,0.688c0,0.279,0.094,0.514,0.282,0.707c0.188,0.193,0.418,0.29,0.692,0.29
			c0.283,0,0.519-0.097,0.707-0.29c0.187-0.193,0.282-0.428,0.282-0.707c0-0.263-0.093-0.491-0.279-0.684
			c-0.185-0.193-0.412-0.29-0.681-0.29C76.894,26.718,76.657,26.814,76.462,27.004 M76.967,29.648h-1.099
			c0.205,0.156,0.346,0.286,0.422,0.388c0.075,0.103,0.124,0.227,0.146,0.374c0.022,0.146,0.033,0.412,0.033,0.798v4.182
			c0,0.381-0.011,0.646-0.033,0.795c-0.022,0.149-0.071,0.275-0.146,0.377c-0.076,0.103-0.217,0.232-0.422,0.388h2.622
			c-0.2-0.161-0.338-0.291-0.413-0.392c-0.076-0.1-0.126-0.23-0.151-0.391c-0.024-0.162-0.036-0.42-0.036-0.777v-6.042
			C77.704,29.548,77.397,29.648,76.967,29.648 M72.511,29.436c-0.64,0-1.193,0.084-1.659,0.252
			c-0.467,0.169-0.824,0.414-1.073,0.736c-0.249,0.323-0.374,0.703-0.374,1.143c0,0.337,0.072,0.624,0.216,0.861
			c0.144,0.236,0.385,0.455,0.722,0.655c0.337,0.2,0.813,0.41,1.428,0.63c0.825,0.298,1.33,0.513,1.516,0.644
			c0.239,0.171,0.359,0.411,0.359,0.718c0,0.318-0.164,0.583-0.491,0.795c-0.327,0.212-0.732,0.319-1.216,0.319
			c-0.337,0-0.655-0.031-0.956-0.092c-0.3-0.061-0.609-0.162-0.926-0.304c-0.317-0.142-0.676-0.337-1.077-0.586l0.542,1.56
			c0.425,0.156,0.781,0.261,1.07,0.315c0.288,0.054,0.642,0.081,1.062,0.081c0.708,0,1.324-0.1,1.849-0.301
			c0.525-0.2,0.93-0.488,1.216-0.864c0.285-0.376,0.428-0.808,0.428-1.296c0-0.537-0.205-0.999-0.615-1.385
			c-0.205-0.185-0.433-0.336-0.685-0.454c-0.251-0.117-0.682-0.275-1.292-0.476c-0.43-0.136-0.765-0.258-1.004-0.366
			c-0.239-0.107-0.413-0.222-0.52-0.344c-0.107-0.122-0.161-0.259-0.161-0.41c0-0.264,0.133-0.478,0.399-0.641
			c0.266-0.164,0.619-0.246,1.058-0.246c0.616,0,1.265,0.205,1.949,0.616v-1.348C73.792,29.506,73.204,29.436,72.511,29.436
			 M63.054,30.842c0.366-0.308,0.818-0.462,1.355-0.462c1.118,0,1.79,0.591,2.014,1.773h-4.094
			C62.446,31.587,62.688,31.149,63.054,30.842 M68.086,32.885c0-0.498-0.09-0.958-0.271-1.38c-0.181-0.423-0.432-0.788-0.754-1.095
			c-0.323-0.308-0.704-0.547-1.143-0.718c-0.439-0.171-0.918-0.256-1.436-0.256c-0.527,0-1.014,0.076-1.461,0.23
			c-0.447,0.154-0.838,0.382-1.175,0.685c-0.259,0.234-0.486,0.512-0.681,0.831c-0.196,0.32-0.346,0.66-0.451,1.018
			c-0.105,0.359-0.157,0.722-0.157,1.088c0,0.747,0.189,1.416,0.567,2.007c0.379,0.591,0.911,1.05,1.597,1.377
			s1.459,0.491,2.318,0.491c0.254,0,0.507-0.013,0.758-0.037c0.252-0.024,0.491-0.065,0.718-0.121
			c0.227-0.056,0.465-0.13,0.714-0.223l0.857-1.509c-0.288,0.195-0.567,0.353-0.835,0.472c-0.269,0.12-0.556,0.208-0.861,0.264
			s-0.623,0.084-0.955,0.084c-0.621,0-1.167-0.117-1.641-0.351c-0.474-0.235-0.84-0.574-1.099-1.018
			c-0.259-0.445-0.403-0.972-0.432-1.582h5.823V32.885z M55.117,27.502c0.576,0,1.041,0.164,1.395,0.491s0.531,0.747,0.531,1.259
			c0,1.216-0.881,1.973-2.644,2.271c0.43,0.723,0.877,1.414,1.341,2.073c0.463,0.659,0.942,1.281,1.435,1.867
			c0.342,0.411,0.641,0.732,0.897,0.964c0.257,0.232,0.504,0.391,0.744,0.479c0.239,0.088,0.508,0.132,0.805,0.132
			c0.186,0,0.669-0.029,1.451-0.088c-0.625-0.327-1.296-0.869-2.011-1.626s-1.654-1.914-2.816-3.471
			c0.488-0.122,0.928-0.321,1.318-0.597c0.391-0.276,0.696-0.598,0.916-0.967c0.22-0.369,0.329-0.753,0.329-1.154
			c0-0.381-0.092-0.753-0.278-1.117c-0.186-0.363-0.442-0.665-0.769-0.904c-0.552-0.41-1.333-0.615-2.344-0.615
			c-0.268,0-0.493,0.005-0.674,0.014c-0.229,0.01-0.473,0.015-0.732,0.015h-2.3c0.195,0.102,0.344,0.226,0.447,0.37
			c0.103,0.144,0.172,0.342,0.209,0.593c0.036,0.252,0.055,0.604,0.055,1.058v6.38c0,0.454-0.019,0.807-0.055,1.058
			c-0.037,0.252-0.106,0.449-0.209,0.593s-0.252,0.268-0.447,0.37h3.003c-0.2-0.102-0.349-0.224-0.447-0.366
			c-0.097-0.142-0.164-0.339-0.201-0.593c-0.037-0.254-0.055-0.608-0.055-1.062v-7.31C54.436,27.541,54.804,27.502,55.117,27.502"/>
		<path style="fill:#00275B;" d="M185.816,14.147h-1.018c0.205,0.157,0.346,0.286,0.421,0.389c0.076,0.102,0.125,0.227,0.147,0.373
			c0.022,0.147,0.033,0.413,0.033,0.799v4.182c0,0.381-0.011,0.645-0.033,0.794c-0.022,0.149-0.071,0.275-0.147,0.378
			c-0.075,0.102-0.216,0.232-0.421,0.388h2.622c-0.2-0.161-0.338-0.292-0.413-0.392c-0.076-0.1-0.126-0.231-0.151-0.392
			c-0.024-0.161-0.036-0.42-0.036-0.776v-3.194c0-0.4,0.071-0.7,0.212-0.901c0.156-0.214,0.366-0.383,0.63-0.505
			c0.264-0.122,0.554-0.183,0.872-0.183c0.327,0,0.636,0.062,0.926,0.187c0.291,0.124,0.512,0.287,0.663,0.487
			c0.122,0.146,0.21,0.343,0.264,0.589c0.053,0.247,0.08,0.58,0.08,1v2.52c0,0.341-0.012,0.595-0.036,0.761
			c-0.025,0.166-0.076,0.302-0.154,0.407s-0.22,0.236-0.425,0.392h2.644c-0.278-0.22-0.448-0.409-0.509-0.568
			c-0.061-0.159-0.091-0.489-0.091-0.992v-2.688c0-0.601-0.027-1.051-0.081-1.352c-0.054-0.3-0.151-0.562-0.293-0.787
			c-0.151-0.22-0.352-0.416-0.601-0.59c-0.249-0.173-0.536-0.306-0.86-0.399c-0.325-0.092-0.648-0.139-0.971-0.139
			c-0.468,0-0.879,0.092-1.23,0.275c-0.352,0.183-0.723,0.501-1.113,0.956v-1.319C186.561,14.047,186.251,14.147,185.816,14.147
			 M181.071,15.371c0.393,0.249,0.698,0.598,0.915,1.047c0.217,0.449,0.326,0.967,0.326,1.553c0,0.517-0.104,0.974-0.311,1.369
			c-0.208,0.396-0.499,0.703-0.875,0.923c-0.376,0.22-0.801,0.33-1.275,0.33c-0.356,0-0.689-0.072-0.999-0.216
			c-0.311-0.144-0.585-0.353-0.824-0.627c-0.24-0.273-0.423-0.593-0.55-0.959c-0.127-0.366-0.19-0.749-0.19-1.15
			c0-0.508,0.101-0.964,0.304-1.37c0.202-0.405,0.487-0.718,0.853-0.941c0.366-0.222,0.786-0.333,1.26-0.333
			C180.222,14.997,180.678,15.122,181.071,15.371 M178.892,14.03c-0.322,0.064-0.628,0.16-0.916,0.29
			c-0.288,0.129-0.561,0.291-0.82,0.487c-0.464,0.361-0.828,0.809-1.091,1.344c-0.264,0.534-0.396,1.095-0.396,1.681
			c0,0.713,0.175,1.362,0.524,1.948s0.835,1.046,1.457,1.38c0.623,0.335,1.313,0.502,2.069,0.502c0.777,0,1.488-0.173,2.135-0.52
			s1.155-0.819,1.524-1.417s0.553-1.259,0.553-1.981c0-0.528-0.105-1.034-0.315-1.52c-0.21-0.486-0.515-0.909-0.916-1.271
			c-0.737-0.679-1.65-1.018-2.739-1.018C179.57,13.935,179.214,13.967,178.892,14.03 M169.051,21.058
			c-0.075-0.1-0.125-0.231-0.15-0.392c-0.024-0.161-0.036-0.42-0.036-0.776v-2.608c0-0.649,0.112-1.13,0.337-1.443
			c0.136-0.2,0.327-0.357,0.571-0.472c0.244-0.115,0.508-0.172,0.791-0.172c0.322,0,0.571,0.085,0.747,0.256v-1.457
			c-0.22-0.039-0.403-0.059-0.549-0.059c-0.411,0-0.777,0.104-1.099,0.311c-0.322,0.208-0.588,0.509-0.798,0.905v-1.304
			c-0.186,0.2-0.494,0.3-0.923,0.3h-1.099c0.205,0.157,0.346,0.286,0.421,0.389c0.076,0.102,0.125,0.227,0.147,0.373
			c0.022,0.147,0.033,0.413,0.033,0.799v4.182c0,0.381-0.011,0.645-0.033,0.794c-0.022,0.149-0.071,0.275-0.147,0.378
			c-0.075,0.102-0.216,0.232-0.421,0.388h2.622C169.265,21.289,169.127,21.158,169.051,21.058 M160.866,15.341
			c0.366-0.307,0.818-0.461,1.355-0.461c1.118,0,1.789,0.591,2.014,1.772h-4.094C160.258,16.086,160.5,15.649,160.866,15.341
			 M165.898,17.385c0-0.498-0.091-0.958-0.271-1.381c-0.181-0.422-0.432-0.787-0.755-1.095c-0.322-0.307-0.703-0.547-1.142-0.718
			c-0.44-0.17-0.918-0.256-1.436-0.256c-0.527,0-1.014,0.077-1.461,0.231c-0.447,0.154-0.839,0.382-1.176,0.685
			c-0.258,0.234-0.485,0.511-0.681,0.831c-0.195,0.32-0.345,0.659-0.45,1.018c-0.105,0.359-0.158,0.721-0.158,1.088
			c0,0.747,0.19,1.416,0.568,2.006c0.378,0.591,0.911,1.05,1.597,1.377c0.686,0.327,1.458,0.491,2.318,0.491
			c0.254,0,0.506-0.012,0.758-0.037c0.251-0.024,0.491-0.064,0.718-0.12c0.227-0.056,0.465-0.131,0.714-0.224l0.857-1.509
			c-0.288,0.196-0.567,0.353-0.835,0.473c-0.269,0.12-0.556,0.207-0.861,0.264c-0.305,0.056-0.624,0.084-0.956,0.084
			c-0.62,0-1.167-0.117-1.64-0.352c-0.474-0.234-0.84-0.573-1.099-1.018c-0.259-0.444-0.403-0.971-0.432-1.582h5.823V17.385z
			 M156.926,15.195c0.269,0,0.472,0.021,0.608,0.062c0.137,0.042,0.264,0.116,0.381,0.223v-1.428
			c-0.151,0.064-0.461,0.095-0.93,0.095h-1.23v-2.358h-0.616v0.198c0,0.889-0.195,1.538-0.586,1.948
			c-0.327,0.366-0.761,0.596-1.303,0.689v0.571h1.084v3.493c0,0.508,0.014,0.889,0.044,1.143c0.029,0.254,0.083,0.463,0.161,0.626
			c0.078,0.164,0.2,0.334,0.366,0.509c0.444,0.464,0.984,0.696,1.619,0.696c0.2,0,0.39-0.032,0.571-0.095l0.82-1.121
			c-0.234,0.088-0.454,0.132-0.659,0.132c-0.518,0-0.923-0.18-1.216-0.542c-0.112-0.141-0.188-0.312-0.227-0.513
			c-0.039-0.2-0.058-0.522-0.058-0.966v-3.362H156.926z M146.106,14.147h-1.018c0.205,0.157,0.345,0.286,0.421,0.389
			c0.075,0.102,0.124,0.227,0.146,0.373c0.022,0.147,0.033,0.413,0.033,0.799v4.182c0,0.381-0.011,0.645-0.033,0.794
			c-0.022,0.149-0.071,0.275-0.146,0.378c-0.076,0.102-0.216,0.232-0.421,0.388h2.622c-0.201-0.161-0.339-0.292-0.414-0.392
			c-0.076-0.1-0.126-0.231-0.15-0.392c-0.025-0.161-0.037-0.42-0.037-0.776v-3.194c0-0.4,0.071-0.7,0.212-0.901
			c0.157-0.214,0.367-0.383,0.63-0.505c0.264-0.122,0.554-0.183,0.872-0.183c0.327,0,0.636,0.062,0.926,0.187
			c0.291,0.124,0.512,0.287,0.663,0.487c0.122,0.146,0.21,0.343,0.264,0.589c0.054,0.247,0.081,0.58,0.081,1v2.52
			c0,0.341-0.013,0.595-0.037,0.761c-0.025,0.166-0.076,0.302-0.154,0.407s-0.22,0.236-0.425,0.392h2.644
			c-0.278-0.22-0.448-0.409-0.509-0.568c-0.061-0.159-0.091-0.489-0.091-0.992v-2.688c0-0.601-0.027-1.051-0.081-1.352
			c-0.054-0.3-0.151-0.562-0.293-0.787c-0.151-0.22-0.351-0.416-0.6-0.59c-0.249-0.173-0.536-0.306-0.861-0.399
			c-0.325-0.092-0.648-0.139-0.97-0.139c-0.469,0-0.879,0.092-1.231,0.275c-0.351,0.183-0.723,0.501-1.113,0.956v-1.319
			C146.85,14.047,146.54,14.147,146.106,14.147 M139.11,15.341c0.367-0.307,0.818-0.461,1.355-0.461c1.118,0,1.79,0.591,2.015,1.772
			h-4.095C138.502,16.086,138.744,15.649,139.11,15.341 M144.142,17.385c0-0.498-0.09-0.958-0.271-1.381
			c-0.181-0.422-0.432-0.787-0.754-1.095c-0.323-0.307-0.703-0.547-1.143-0.718c-0.439-0.17-0.918-0.256-1.435-0.256
			c-0.528,0-1.015,0.077-1.462,0.231c-0.446,0.154-0.838,0.382-1.175,0.685c-0.259,0.234-0.486,0.511-0.681,0.831
			c-0.196,0.32-0.346,0.659-0.451,1.018c-0.105,0.359-0.157,0.721-0.157,1.088c0,0.747,0.189,1.416,0.567,2.006
			c0.379,0.591,0.911,1.05,1.597,1.377c0.686,0.327,1.459,0.491,2.318,0.491c0.254,0,0.507-0.012,0.758-0.037
			c0.252-0.024,0.491-0.064,0.718-0.12c0.227-0.056,0.465-0.131,0.714-0.224l0.857-1.509c-0.288,0.196-0.566,0.353-0.835,0.473
			c-0.268,0.12-0.555,0.207-0.86,0.264c-0.306,0.056-0.624,0.084-0.956,0.084c-0.62,0-1.167-0.117-1.641-0.352
			c-0.474-0.234-0.84-0.573-1.099-1.018c-0.258-0.444-0.402-0.971-0.432-1.582h5.823V17.385z M132.323,10.771
			c-1.06,0-2.018,0.237-2.875,0.71c-0.857,0.474-1.527,1.13-2.01,1.967c-0.484,0.837-0.726,1.774-0.726,2.809
			c0,0.801,0.141,1.537,0.422,2.208c0.28,0.672,0.688,1.25,1.223,1.736c0.534,0.486,1.174,0.858,1.919,1.117
			c0.744,0.259,1.556,0.388,2.435,0.388c0.312,0,0.602-0.016,0.868-0.048c0.266-0.031,0.526-0.08,0.78-0.146
			s0.525-0.158,0.813-0.275l0.798-1.845c-0.708,0.376-1.325,0.643-1.853,0.802c-0.527,0.158-1.067,0.238-1.618,0.238
			c-0.733,0-1.404-0.197-2.015-0.59c-0.61-0.393-1.091-0.929-1.442-1.608c-0.352-0.678-0.528-1.425-0.528-2.241
			c0-0.752,0.16-1.422,0.48-2.01c0.32-0.589,0.768-1.046,1.344-1.374c0.576-0.327,1.228-0.49,1.956-0.49
			c0.483,0,0.952,0.069,1.406,0.208c0.454,0.14,0.945,0.361,1.472,0.663v-1.816C134.068,10.905,133.119,10.771,132.323,10.771
			 M121.366,15.195c0.268,0,0.471,0.021,0.607,0.062c0.137,0.042,0.264,0.116,0.381,0.223v-1.428
			c-0.151,0.064-0.461,0.095-0.93,0.095h-1.23v-2.358h-0.616v0.198c0,0.889-0.195,1.538-0.586,1.948
			c-0.327,0.366-0.761,0.596-1.303,0.689v0.571h1.084v3.493c0,0.508,0.014,0.889,0.044,1.143c0.029,0.254,0.083,0.463,0.161,0.626
			c0.078,0.164,0.2,0.334,0.366,0.509c0.444,0.464,0.984,0.696,1.619,0.696c0.2,0,0.39-0.032,0.571-0.095l0.82-1.121
			c-0.234,0.088-0.454,0.132-0.659,0.132c-0.518,0-0.923-0.18-1.216-0.542c-0.112-0.141-0.188-0.312-0.227-0.513
			c-0.039-0.2-0.058-0.522-0.058-0.966v-3.362H121.366z M114.678,13.935c-0.64,0-1.193,0.084-1.659,0.253
			c-0.466,0.168-0.824,0.414-1.073,0.736c-0.249,0.322-0.373,0.703-0.373,1.142c0,0.337,0.072,0.624,0.216,0.861
			c0.144,0.237,0.384,0.455,0.721,0.656c0.337,0.2,0.813,0.41,1.428,0.629c0.825,0.298,1.331,0.513,1.516,0.645
			c0.24,0.171,0.359,0.41,0.359,0.718c0,0.317-0.163,0.582-0.49,0.794c-0.328,0.213-0.733,0.319-1.216,0.319
			c-0.337,0-0.656-0.03-0.956-0.092c-0.3-0.061-0.609-0.162-0.927-0.304c-0.317-0.141-0.676-0.336-1.076-0.585l0.542,1.56
			c0.425,0.156,0.781,0.261,1.069,0.315c0.288,0.053,0.642,0.08,1.062,0.08c0.708,0,1.325-0.1,1.849-0.3
			c0.525-0.2,0.931-0.488,1.216-0.864c0.286-0.376,0.429-0.808,0.429-1.297c0-0.537-0.205-0.998-0.615-1.384
			c-0.206-0.186-0.434-0.337-0.685-0.454c-0.252-0.117-0.683-0.276-1.293-0.476c-0.43-0.137-0.764-0.259-1.003-0.366
			c-0.24-0.108-0.413-0.223-0.52-0.345c-0.108-0.122-0.162-0.258-0.162-0.41c0-0.264,0.133-0.477,0.4-0.641
			c0.266-0.163,0.618-0.245,1.058-0.245c0.615,0,1.264,0.205,1.948,0.615v-1.348C115.96,14.006,115.371,13.935,114.678,13.935
			 M105.222,15.341c0.366-0.307,0.817-0.461,1.355-0.461c1.118,0,1.789,0.591,2.014,1.772h-4.094
			C104.614,16.086,104.855,15.649,105.222,15.341 M110.253,17.385c0-0.498-0.09-0.958-0.271-1.381
			c-0.18-0.422-0.432-0.787-0.754-1.095c-0.322-0.307-0.703-0.547-1.143-0.718c-0.439-0.17-0.918-0.256-1.435-0.256
			c-0.527,0-1.015,0.077-1.461,0.231c-0.447,0.154-0.839,0.382-1.176,0.685c-0.259,0.234-0.486,0.511-0.681,0.831
			c-0.195,0.32-0.346,0.659-0.45,1.018c-0.105,0.359-0.158,0.721-0.158,1.088c0,0.747,0.189,1.416,0.568,2.006
			c0.378,0.591,0.91,1.05,1.596,1.377c0.686,0.327,1.459,0.491,2.319,0.491c0.253,0,0.506-0.012,0.758-0.037
			c0.251-0.024,0.49-0.064,0.717-0.12c0.227-0.056,0.465-0.131,0.714-0.224l0.857-1.509c-0.288,0.196-0.566,0.353-0.835,0.473
			c-0.268,0.12-0.555,0.207-0.86,0.264c-0.305,0.056-0.624,0.084-0.956,0.084c-0.62,0-1.167-0.117-1.641-0.352
			c-0.473-0.234-0.839-0.573-1.098-1.018c-0.259-0.444-0.403-0.971-0.432-1.582h5.822V17.385z M97.876,20.146
			c0.098,0.298,0.205,0.541,0.323,0.729c0.117,0.188,0.264,0.355,0.443,0.501c0.178,0.147,0.433,0.31,0.765,0.491l3.164-7.72h-2.131
			c0.2,0.132,0.34,0.251,0.421,0.356c0.081,0.105,0.121,0.23,0.121,0.377c0,0.122-0.012,0.227-0.037,0.315
			c-0.024,0.088-0.093,0.263-0.205,0.527l-1.545,3.97l-1.692-4.739c-0.113-0.307-0.169-0.503-0.169-0.586
			c0-0.029,0.005-0.102,0.015-0.22h-2.08c0.166,0.118,0.282,0.223,0.348,0.315c0.066,0.093,0.099,0.203,0.099,0.33
			c0,0.23-0.076,0.54-0.227,0.93l-1.531,3.97l-1.78-4.739c-0.161-0.39-0.256-0.74-0.286-1.047c-0.156,0.107-0.29,0.174-0.402,0.201
			c-0.113,0.027-0.303,0.04-0.572,0.04h-0.93c0.23,0.186,0.396,0.364,0.498,0.535c0.103,0.171,0.252,0.518,0.447,1.04l1.692,4.424
			c0.112,0.303,0.227,0.546,0.344,0.729c0.117,0.183,0.28,0.351,0.487,0.505c0.208,0.154,0.485,0.316,0.832,0.487l2.16-5.625
			L97.876,20.146z M83.523,11.027h-1.091c0.205,0.157,0.345,0.285,0.421,0.385c0.075,0.1,0.124,0.223,0.146,0.37
			c0.022,0.146,0.033,0.415,0.033,0.805v7.303c0,0.381-0.011,0.645-0.033,0.794c-0.022,0.149-0.071,0.275-0.146,0.378
			c-0.076,0.102-0.216,0.232-0.421,0.388h2.636c-0.215-0.166-0.358-0.298-0.432-0.396c-0.073-0.097-0.122-0.229-0.146-0.395
			c-0.025-0.166-0.037-0.423-0.037-0.769v-2.893c0-0.42,0.016-0.704,0.048-0.85c0.031-0.147,0.111-0.298,0.238-0.454
			c0.176-0.205,0.394-0.361,0.655-0.469c0.261-0.107,0.548-0.161,0.861-0.161c0.683,0,1.194,0.225,1.531,0.674
			c0.117,0.146,0.196,0.314,0.238,0.502c0.041,0.188,0.062,0.47,0.062,0.845v2.806c0,0.346-0.012,0.604-0.037,0.772
			c-0.024,0.169-0.074,0.304-0.15,0.407c-0.076,0.102-0.218,0.229-0.428,0.381h2.636c-0.278-0.225-0.448-0.417-0.509-0.575
			c-0.061-0.159-0.091-0.487-0.091-0.985v-3.289c0-0.425-0.028-0.752-0.084-0.981c-0.057-0.23-0.158-0.447-0.304-0.652
			c-0.161-0.22-0.358-0.407-0.59-0.561c-0.232-0.153-0.493-0.271-0.784-0.351c-0.29-0.081-0.597-0.121-0.919-0.121
			c-0.493,0-0.953,0.09-1.38,0.271c-0.428,0.181-0.758,0.425-0.993,0.732v-4.211C84.268,10.927,83.958,11.027,83.523,11.027
			 M80.978,15.195c0.269,0,0.472,0.021,0.608,0.062c0.137,0.042,0.264,0.116,0.381,0.223v-1.428
			c-0.151,0.064-0.461,0.095-0.93,0.095h-1.23v-2.358h-0.616v0.198c0,0.889-0.195,1.538-0.586,1.948
			c-0.327,0.366-0.761,0.596-1.303,0.689v0.571h1.084v3.493c0,0.508,0.014,0.889,0.044,1.143c0.029,0.254,0.083,0.463,0.161,0.626
			c0.078,0.164,0.2,0.334,0.366,0.509c0.444,0.464,0.984,0.696,1.619,0.696c0.2,0,0.39-0.032,0.571-0.095l0.82-1.121
			c-0.234,0.088-0.454,0.132-0.659,0.132c-0.518,0-0.923-0.18-1.216-0.542c-0.112-0.141-0.188-0.312-0.227-0.513
			c-0.039-0.2-0.058-0.522-0.058-0.966v-3.362H80.978z M76.743,21.45c-0.2-0.161-0.338-0.292-0.413-0.392
			c-0.076-0.1-0.126-0.231-0.151-0.392c-0.024-0.161-0.036-0.42-0.036-0.776v-6.043c-0.186,0.2-0.488,0.3-0.908,0.3h-1.114
			c0.201,0.152,0.338,0.279,0.414,0.381c0.076,0.103,0.126,0.241,0.15,0.414c0.025,0.174,0.037,0.429,0.037,0.766v2.834
			c0,0.571-0.166,1.029-0.498,1.373c-0.332,0.345-0.776,0.517-1.333,0.517c-0.601,0-1.069-0.201-1.406-0.601
			c-0.142-0.185-0.243-0.398-0.304-0.637c-0.061-0.239-0.092-0.552-0.092-0.938v-4.409c-0.185,0.2-0.5,0.3-0.945,0.3h-1.076
			c0.205,0.157,0.345,0.286,0.421,0.389c0.075,0.102,0.124,0.227,0.146,0.373c0.022,0.147,0.033,0.413,0.033,0.799v2.834
			c0,0.894,0.149,1.563,0.447,2.007c0.234,0.351,0.558,0.625,0.97,0.82c0.413,0.195,0.881,0.293,1.403,0.293
			c0.356,0,0.656-0.038,0.897-0.113c0.242-0.076,0.464-0.196,0.667-0.359c0.202-0.164,0.445-0.421,0.729-0.773v1.033H76.743z
			 M65.42,15.371c0.393,0.249,0.698,0.598,0.915,1.047c0.217,0.449,0.326,0.967,0.326,1.553c0,0.517-0.104,0.974-0.311,1.369
			c-0.208,0.396-0.499,0.703-0.875,0.923s-0.801,0.33-1.275,0.33c-0.356,0-0.69-0.072-1-0.216c-0.31-0.144-0.584-0.353-0.824-0.627
			c-0.239-0.273-0.422-0.593-0.549-0.959c-0.127-0.366-0.19-0.749-0.19-1.15c0-0.508,0.101-0.964,0.304-1.37
			c0.202-0.405,0.487-0.718,0.853-0.941c0.366-0.222,0.786-0.333,1.26-0.333C64.571,14.997,65.027,15.122,65.42,15.371
			 M63.241,14.03c-0.323,0.064-0.628,0.16-0.916,0.29c-0.288,0.129-0.561,0.291-0.82,0.487c-0.464,0.361-0.828,0.809-1.091,1.344
			c-0.264,0.534-0.396,1.095-0.396,1.681c0,0.713,0.175,1.362,0.524,1.948c0.349,0.586,0.835,1.046,1.457,1.38
			c0.623,0.335,1.312,0.502,2.069,0.502c0.777,0,1.488-0.173,2.135-0.52c0.647-0.347,1.155-0.819,1.524-1.417
			c0.368-0.598,0.553-1.259,0.553-1.981c0-0.528-0.105-1.034-0.315-1.52s-0.515-0.909-0.916-1.271
			c-0.737-0.679-1.65-1.018-2.739-1.018C63.919,13.935,63.563,13.967,63.241,14.03 M55.718,10.771c-0.796,0-1.49,0.115-2.084,0.344
			c-0.593,0.23-1.051,0.556-1.373,0.978s-0.483,0.917-0.483,1.483c0,0.337,0.074,0.669,0.223,0.996
			c0.149,0.327,0.348,0.606,0.597,0.835c0.229,0.21,0.503,0.407,0.82,0.59c0.318,0.183,0.774,0.406,1.37,0.67
			c0.654,0.298,1.118,0.521,1.391,0.67c0.274,0.149,0.486,0.294,0.638,0.436c0.346,0.312,0.52,0.688,0.52,1.128
			c0,0.308-0.104,0.583-0.312,0.828c-0.207,0.244-0.494,0.437-0.86,0.578c-0.366,0.142-0.764,0.213-1.194,0.213
			c-1.26,0-2.42-0.42-3.479-1.26l0.476,1.963c0.503,0.175,0.969,0.302,1.399,0.381c0.43,0.078,0.893,0.117,1.392,0.117
			c1.401,0,2.507-0.391,3.317-1.172c0.303-0.298,0.541-0.632,0.715-1.004c0.173-0.371,0.26-0.751,0.26-1.142
			c0-0.342-0.075-0.662-0.224-0.96c-0.149-0.297-0.36-0.551-0.633-0.761c-0.23-0.196-0.495-0.374-0.795-0.535
			c-0.3-0.161-0.805-0.408-1.513-0.74c-0.659-0.307-1.149-0.56-1.472-0.758c-0.322-0.198-0.548-0.395-0.677-0.593
			c-0.13-0.198-0.194-0.429-0.194-0.692c0-0.44,0.191-0.797,0.575-1.073c0.383-0.276,0.887-0.414,1.512-0.414
			c0.464,0,0.912,0.089,1.344,0.267c0.432,0.179,0.819,0.436,1.161,0.773v-1.802C57.319,10.886,56.514,10.771,55.718,10.771"/>
		<path style="fill:#00275B;" d="M211.424,5.825h0.645V3.73h2.212v2.095h0.644V1.309h-0.644v1.907h-2.212V1.309h-0.645V5.825z
			 M208.684,5.825h0.644v-3.98h1.305V1.309h-3.196v0.536h1.247V5.825z M204.892,5.825h2.385V5.297h-1.74V1.309h-0.645V5.825z
			 M200.013,5.825h0.652l0.392-1.124h1.914l0.377,1.124h0.703l-1.602-4.516h-0.762L200.013,5.825z M201.238,4.173l0.479-1.37
			c0.116-0.327,0.253-0.733,0.311-0.957h0.015c0.043,0.203,0.166,0.565,0.268,0.877l0.486,1.45H201.238z M196.925,5.825h2.471V5.289
			h-1.827V3.672h1.559V3.158h-1.559V1.845h1.827V1.309h-2.471V5.825z M192.075,5.825h0.644V3.73h2.212v2.095h0.644V1.309h-0.644
			v1.907h-2.212V1.309h-0.644V5.825z M188.137,5.883c0.435,0,0.798-0.065,1.109-0.203V5.094c-0.253,0.137-0.58,0.239-1,0.239
			c-0.964,0-1.508-0.653-1.508-1.704c0-1.132,0.471-1.828,1.443-1.828c0.456,0,0.775,0.102,0.986,0.232V1.439
			c-0.189-0.087-0.544-0.188-1.037-0.188c-1.392,0-2.08,1.058-2.08,2.378C186.05,4.956,186.789,5.883,188.137,5.883 M184.288,5.825
			h0.644V1.309h-0.644V5.825z M180.903,5.825h2.384V5.297h-1.74V1.309h-0.644V5.825z M177.415,3.223V1.83h0.769
			c0.558,0,0.805,0.276,0.805,0.675c0,0.457-0.254,0.718-0.813,0.718H177.415z M177.415,5.304V3.708h0.798
			c0.594,0,0.863,0.29,0.863,0.812c0,0.515-0.298,0.784-0.878,0.784H177.415z M176.77,5.825h1.522c0.929,0,1.486-0.528,1.486-1.297
			c0-0.617-0.384-0.979-0.884-1.073V3.44c0.385-0.094,0.747-0.464,0.747-0.986c0-0.696-0.478-1.145-1.407-1.145h-1.464V5.825z
			 M173.768,5.883c0.965,0,1.682-0.528,1.682-1.623V1.309h-0.608V4.18c0,0.732-0.348,1.167-1.074,1.167
			c-0.725,0-1.059-0.435-1.059-1.167V1.309h-0.644V4.26C172.065,5.355,172.811,5.883,173.768,5.883 M168.882,3.586V1.823h0.703
			c0.581,0,0.856,0.348,0.856,0.87c0,0.523-0.275,0.893-0.856,0.893H168.882z M168.237,5.825h0.645V4.07h0.841
			c0.878,0,1.384-0.6,1.384-1.377c0-0.826-0.528-1.384-1.377-1.384h-1.493V5.825z M162.945,5.825h0.644V3.679h1.697V3.172h-1.697
			V1.845h1.885V1.309h-2.529V5.825z M159.827,5.347c-0.921,0-1.327-0.725-1.327-1.776c0-1.052,0.406-1.784,1.327-1.784
			c0.921,0,1.334,0.725,1.334,1.776C161.161,4.615,160.748,5.347,159.827,5.347 M159.827,5.883c1.392,0,2.022-1.094,2.022-2.32
			c0-1.29-0.63-2.312-2.022-2.312s-2.022,1.094-2.022,2.32C157.805,4.862,158.435,5.883,159.827,5.883 M152.715,5.825h2.472V5.289
			h-1.827V3.672h1.559V3.158h-1.559V1.845h1.827V1.309h-2.472V5.825z M150.083,5.883c0.668,0,1.044-0.138,1.363-0.253V3.513h-1.399
			v0.5h0.791v1.218c-0.196,0.073-0.385,0.116-0.689,0.116c-0.95,0-1.538-0.58-1.538-1.718c0-1.11,0.472-1.842,1.545-1.842
			c0.442,0,0.798,0.109,1.065,0.254V1.476c-0.231-0.109-0.536-0.225-1.101-0.225c-1.509,0-2.204,1.065-2.204,2.378
			C147.916,5.05,148.742,5.883,150.083,5.883 M144.581,5.825h2.471V5.289h-1.827V3.672h1.559V3.158h-1.559V1.845h1.827V1.309h-2.471
			V5.825z M141.224,5.825h2.385V5.297h-1.74V1.309h-0.645V5.825z M137.868,5.825h2.384V5.297h-1.74V1.309h-0.644V5.825z
			 M134.75,5.347c-0.921,0-1.327-0.725-1.327-1.776c0-1.052,0.406-1.784,1.327-1.784s1.334,0.725,1.334,1.776
			C136.084,4.615,135.671,5.347,134.75,5.347 M134.75,5.883c1.392,0,2.022-1.094,2.022-2.32c0-1.29-0.63-2.312-2.022-2.312
			s-2.022,1.094-2.022,2.32C132.728,4.862,133.358,5.883,134.75,5.883 M130.987,5.883c0.435,0,0.797-0.065,1.109-0.203V5.094
			c-0.254,0.137-0.58,0.239-1,0.239c-0.965,0-1.508-0.653-1.508-1.704c0-1.132,0.471-1.828,1.442-1.828
			c0.457,0,0.776,0.102,0.986,0.232V1.439c-0.188-0.087-0.543-0.188-1.036-0.188c-1.392,0-2.08,1.058-2.08,2.378
			C128.9,4.956,129.638,5.883,130.987,5.883 M122.571,5.825h0.586V2.839c0-0.24-0.015-0.414-0.015-0.609h0.015
			c0.109,0.217,0.239,0.464,0.377,0.688l1.821,2.907h0.687V1.309h-0.586v2.987c0,0.239,0.007,0.434,0.015,0.637h-0.022
			c-0.102-0.224-0.254-0.507-0.385-0.71l-1.82-2.914h-0.673V5.825z M117.677,5.825h0.652l0.392-1.124h1.914l0.377,1.124h0.703
			l-1.602-4.516h-0.762L117.677,5.825z M118.902,4.173l0.478-1.37c0.116-0.327,0.254-0.733,0.312-0.957h0.015
			c0.043,0.203,0.166,0.565,0.268,0.877l0.486,1.45H118.902z M112.145,5.825h0.587l0.355-2.863c0.037-0.305,0.073-0.783,0.087-0.993
			h0.015c0.036,0.203,0.13,0.601,0.21,0.884l0.827,2.972h0.739l0.834-2.95c0.08-0.297,0.152-0.66,0.203-0.899h0.014
			c0.022,0.239,0.037,0.609,0.08,0.942l0.384,2.907h0.602l-0.602-4.516h-0.819l-0.812,2.929c-0.08,0.304-0.174,0.746-0.232,1.065
			h-0.007c-0.051-0.319-0.145-0.776-0.232-1.08l-0.819-2.914h-0.827L112.145,5.825z M108.773,3.361V1.816h0.711
			c0.581,0,0.849,0.261,0.849,0.776c0,0.464-0.283,0.769-0.849,0.769H108.773z M111.188,5.868c0.094,0,0.173-0.007,0.26-0.028V5.333
			c-0.058,0.007-0.108,0.014-0.159,0.014c-0.145,0-0.268-0.05-0.391-0.239l-0.906-1.342c0.688-0.174,1-0.681,1-1.181
			c0-0.805-0.529-1.276-1.363-1.276h-1.5v4.516h0.644V3.831h0.566l1.016,1.552C110.586,5.745,110.847,5.868,111.188,5.868
			 M104.533,5.825h2.471V5.289h-1.827V3.672h1.559V3.158h-1.559V1.845h1.827V1.309h-2.471V5.825z M103.401,5.868
			c0.087,0,0.167-0.014,0.261-0.028V5.333c-0.043,0.007-0.087,0.007-0.123,0.007c-0.152,0-0.261-0.051-0.406-0.232l-1.356-1.66
			l1.798-2.139h-0.718l-1.769,2.139V1.309h-0.644v4.516h0.644V3.563l1.487,1.834C102.865,5.753,103.082,5.868,103.401,5.868
			 M98.261,5.883c0.435,0,0.798-0.065,1.109-0.203V5.094c-0.253,0.137-0.58,0.239-1,0.239c-0.964,0-1.508-0.653-1.508-1.704
			c0-1.132,0.471-1.828,1.443-1.828c0.456,0,0.775,0.102,0.986,0.232V1.439c-0.189-0.087-0.544-0.188-1.037-0.188
			c-1.392,0-2.08,1.058-2.08,2.378C96.174,4.956,96.913,5.883,98.261,5.883 M93.433,5.883c0.965,0,1.682-0.528,1.682-1.623V1.309
			h-0.608V4.18c0,0.732-0.349,1.167-1.074,1.167c-0.725,0-1.059-0.435-1.059-1.167V1.309H91.73V4.26
			C91.73,5.355,92.476,5.883,93.433,5.883 M87.8,5.825h3.001V5.289h-2.247l2.189-3.43v-0.55h-2.856v0.536h2.131L87.8,5.304V5.825z
			 M82.435,5.297V1.83h0.674c1.204,0,1.494,0.841,1.494,1.741c0,0.906-0.304,1.726-1.537,1.726H82.435z M81.79,5.825h1.385
			c1.559,0,2.116-1.138,2.116-2.254c0-1.175-0.579-2.262-2.095-2.262H81.79V5.825z M79.768,5.825h0.644V1.309h-0.644V5.825z
			 M74.903,5.825h0.586V2.839c0-0.24-0.014-0.414-0.014-0.609h0.014c0.109,0.217,0.24,0.464,0.378,0.688l1.82,2.907h0.688V1.309
			h-0.586v2.987c0,0.239,0.007,0.434,0.014,0.637h-0.022c-0.101-0.224-0.254-0.507-0.384-0.71l-1.821-2.914h-0.673V5.825z
			 M71.293,5.825h2.471V5.289h-1.827V3.672h1.559V3.158h-1.559V1.845h1.827V1.309h-2.471V5.825z M66.826,5.384
			c-0.594,0-0.928-0.327-0.928-0.747c0-0.392,0.232-0.682,0.653-0.914c0.297,0.348,1.203,1.305,1.203,1.305
			C67.559,5.202,67.196,5.384,66.826,5.384 M66.747,3.121c-0.363-0.377-0.479-0.595-0.479-0.848c0-0.327,0.261-0.573,0.646-0.573
			c0.362,0,0.602,0.254,0.602,0.536C67.516,2.57,67.276,2.824,66.747,3.121 M66.805,5.883c0.515,0,1.022-0.224,1.297-0.478
			c0.254,0.268,0.515,0.478,0.848,0.478c0.174,0,0.297-0.036,0.392-0.08V5.34c-0.073,0.029-0.145,0.036-0.232,0.036
			c-0.218,0-0.385-0.159-0.617-0.384c0.276-0.363,0.464-0.783,0.559-1.276l-0.551-0.095c-0.073,0.378-0.211,0.704-0.377,0.987
			c0,0-0.732-0.783-1.073-1.168c0.703-0.384,1.036-0.732,1.036-1.218c0-0.551-0.477-0.971-1.166-0.971
			c-0.726,0-1.247,0.413-1.247,1.051c0,0.391,0.181,0.674,0.558,1.087c-0.667,0.363-0.971,0.711-0.971,1.269
			C65.261,5.34,65.818,5.883,66.805,5.883 M61.143,5.825h2.384V5.297h-1.74V1.309h-0.644V5.825z M57.547,5.825h2.471V5.289h-1.827
			V3.672h1.559V3.158h-1.559V1.845h1.827V1.309h-2.471V5.825z M51.435,5.825h0.587l0.356-2.863c0.036-0.305,0.072-0.783,0.087-0.993
			h0.014c0.036,0.203,0.13,0.601,0.21,0.884l0.827,2.972h0.739l0.834-2.95c0.08-0.297,0.152-0.66,0.203-0.899h0.015
			c0.021,0.239,0.036,0.609,0.079,0.942l0.385,2.907h0.601l-0.601-4.516h-0.82l-0.812,2.929c-0.079,0.304-0.174,0.746-0.232,1.065
			H53.9c-0.051-0.319-0.145-0.776-0.232-1.08l-0.819-2.914h-0.827L51.435,5.825z"/>
	</g>
</g>
</svg>
